<svg width="60" height="60" viewBox="0 0 60 60" fill="none" xmlns="http://www.w3.org/2000/svg">
<path d="M36.1905 11.1905C36.1905 14.6097 33.4193 17.381 30 17.381C26.5807 17.381 23.8095 14.6097 23.8095 11.1905C23.8095 7.77121 26.5807 5 30 5C33.4193 5 36.1905 7.77121 36.1905 11.1905Z" fill="#2F65B9"/>
<path d="M19.7627 5.97935C19.0929 10.1253 16.6191 13.7682 14.0051 17.0545C11.2291 20.5439 9.57143 24.9655 9.57143 29.774C9.57143 41.0559 18.7181 50.2026 30 50.2026C41.2819 50.2026 50.4286 41.0559 50.4286 29.774C50.4286 24.9691 48.7721 20.5548 45.9997 17.0666C43.3833 13.7731 40.9325 10.1168 40.2373 5.96847C40.2276 5.9189 40.2772 5.879 40.3231 5.89834C49.5508 9.90523 56 19.0797 56 29.774C56 44.1318 44.3578 55.774 30 55.774C15.6422 55.774 4 44.1318 4 29.774C4 19.0833 10.4444 9.90039 19.666 5.90318C19.6926 5.8923 19.7204 5.89834 19.7386 5.91406C19.7567 5.92857 19.7676 5.95275 19.7627 5.97935Z" fill="#2F65B9"/>
<path d="M17.7121 18.4401C18.3638 17.734 19.5076 18.0774 20.0058 18.8983C20.2887 19.3723 20.5063 19.9055 20.649 20.4641C20.863 21.302 20.9065 22.1955 20.7445 23.0273C20.6538 23.4965 20.4967 23.945 20.2681 24.3525C19.3698 25.9569 18.8571 27.8056 18.8571 29.774C18.8571 35.9258 23.8482 40.9169 30 40.9169C36.1518 40.9169 41.1429 35.9258 41.1429 29.774C41.1429 27.8068 40.6302 25.9557 39.7331 24.3501C38.8323 22.7396 39.0463 20.4834 39.9942 18.8983C40.4924 18.0774 41.6362 17.734 42.2879 18.4401C45.0325 21.4193 46.7143 25.4056 46.7143 29.774C46.7143 39.0017 39.2277 46.4883 30 46.4883C20.7723 46.4883 13.2857 39.0017 13.2857 29.774C13.2857 25.4056 14.9675 21.4193 17.7121 18.4401Z" fill="#2F65B9"/>
<path d="M30 37.1905C33.4193 37.1905 36.1905 33.3105 36.1905 28.5238C36.1905 23.7371 33.4193 19.8571 30 19.8571C26.5807 19.8571 23.8095 23.7371 23.8095 28.5238C23.8095 33.3105 26.5807 37.1905 30 37.1905Z" fill="#2F65B9"/>
</svg>
